<?xml version="1.0" standalone="no"?>
<!DOCTYPE svg PUBLIC "-//W3C//DTD SVG 20010904//EN"
 "http://www.w3.org/TR/2001/REC-SVG-20010904/DTD/svg10.dtd">
<svg version="1.0" xmlns="http://www.w3.org/2000/svg"
 width="386.000000pt" height="386.000000pt" viewBox="0 0 386.000000 386.000000"
 preserveAspectRatio="xMidYMid meet">
<metadata>
Created by potrace 1.11, written by Peter Selinger 2001-2013
</metadata>
<g transform="translate(0.000000,386.000000) scale(0.100000,-0.100000)"
fill="#000000" stroke="none">
<path d="M1764 3852 c4 -6 2 -13 -4 -17 -5 -3 -10 -1 -10 5 0 6 -5 8 -10 5 -6
-4 -7 -11 -4 -17 4 -6 -2 -6 -15 1 -14 8 -21 8 -21 1 0 -5 -5 -10 -11 -10 -5
0 -7 6 -3 13 6 9 5 9 -8 0 -8 -7 -19 -9 -23 -5 -5 4 -6 0 -3 -9 4 -9 1 -16 -8
-16 -7 0 -11 4 -8 9 3 4 0 8 -5 8 -6 0 -11 -5 -11 -11 0 -8 -4 -8 -14 0 -10 8
-16 8 -25 -2 -6 -8 -8 -17 -5 -20 4 -4 -7 -3 -23 2 -23 7 -35 4 -54 -9 -13
-10 -27 -16 -31 -14 -4 3 -8 0 -8 -7 0 -8 -4 -8 -15 1 -13 11 -14 10 -9 -6 4
-10 4 -16 -1 -12 -4 4 -14 3 -22 -3 -7 -6 -13 -8 -13 -3 0 4 -7 -1 -16 -12 -8
-10 -13 -14 -10 -7 4 7 -4 6 -24 -3 -16 -9 -30 -20 -30 -25 0 -5 -3 -8 -7 -8
-21 3 -34 -2 -28 -11 4 -6 -8 -13 -25 -16 -19 -4 -29 -11 -26 -19 3 -8 -2 -12
-12 -11 -9 2 -25 -7 -36 -18 -12 -12 -28 -22 -36 -24 -8 -2 -19 -8 -25 -13 -7
-7 -3 -8 10 -4 11 3 6 -1 -12 -10 -17 -8 -35 -20 -39 -26 -5 -8 -2 -10 7 -5 8
4 3 -1 -11 -12 -13 -11 -29 -18 -34 -15 -5 4 -7 -1 -3 -12 6 -14 3 -16 -12
-12 -15 3 -18 1 -14 -11 5 -11 3 -13 -7 -7 -10 6 -12 4 -7 -8 5 -13 1 -17 -14
-17 -15 0 -19 -5 -15 -15 3 -9 0 -15 -9 -15 -7 0 -17 -5 -21 -12 -5 -7 -2 -9
7 -4 8 4 3 -2 -11 -13 -14 -11 -21 -21 -17 -21 4 0 2 -6 -5 -14 -7 -8 -17 -11
-22 -8 -5 3 -6 0 -2 -6 3 -6 2 -13 -3 -17 -5 -3 -16 -18 -24 -33 -8 -15 -24
-44 -35 -64 -11 -21 -22 -35 -24 -32 -3 3 -8 -2 -12 -11 -4 -11 -2 -14 7 -10
6 4 5 1 -4 -7 -9 -7 -14 -19 -12 -25 3 -7 -2 -16 -11 -19 -9 -3 -13 -11 -9
-17 4 -6 0 -8 -10 -4 -10 4 -17 1 -17 -5 0 -6 -3 -8 -6 -5 -11 10 -45 -13 -38
-25 4 -6 3 -8 -4 -4 -6 3 -14 1 -17 -5 -4 -5 -13 -8 -21 -5 -7 3 -23 -7 -34
-22 -12 -15 -19 -21 -15 -15 4 9 1 11 -9 7 -9 -3 -14 -10 -11 -14 3 -4 -2 -11
-11 -14 -10 -4 -13 -2 -8 7 4 6 -2 3 -13 -8 -11 -11 -19 -23 -16 -27 2 -4 -3
-5 -11 -2 -15 6 -21 -6 -17 -30 1 -5 -4 -4 -13 3 -11 9 -16 9 -22 0 -5 -8 -3
-10 7 -5 8 4 5 0 -5 -8 -11 -9 -26 -16 -34 -16 -7 0 -10 -4 -7 -10 3 -5 0 -10
-8 -10 -8 0 -17 -9 -20 -21 -3 -12 -10 -18 -16 -14 -6 3 -11 0 -11 -8 0 -8 -7
-18 -16 -21 -8 -3 -12 -10 -9 -16 4 -6 -1 -7 -11 -3 -12 4 -15 3 -10 -5 4 -7
1 -12 -8 -12 -9 0 -16 -5 -16 -11 0 -5 5 -7 12 -3 7 4 8 3 4 -4 -4 -7 -13 -12
-21 -12 -8 0 -17 -4 -20 -10 -3 -6 1 -7 12 -4 10 3 6 -2 -9 -11 -25 -14 -33
-26 -29 -47 1 -8 -14 -12 -34 -9 -5 1 -2 -5 8 -13 17 -13 16 -14 -8 -20 -14
-4 -25 -11 -25 -17 0 -6 6 -7 13 -3 6 4 0 -5 -15 -21 -16 -15 -28 -34 -28 -41
0 -8 -4 -14 -8 -14 -4 0 -8 -10 -9 -22 -1 -12 -12 -31 -25 -41 -21 -17 -21
-18 -3 -13 20 6 20 6 1 -9 -11 -8 -16 -15 -12 -15 5 0 1 -11 -8 -25 -9 -14
-14 -30 -11 -35 3 -6 1 -10 -4 -10 -6 0 -11 -3 -10 -7 3 -19 -14 -52 -24 -46
-5 3 -7 2 -4 -4 3 -5 0 -21 -8 -36 -9 -19 -10 -29 -3 -33 7 -5 8 -2 3 6 -6 9
-4 11 4 6 9 -6 9 -12 -3 -25 -9 -10 -16 -27 -16 -39 0 -12 -6 -22 -12 -22 -9
0 -8 -4 2 -10 10 -7 12 -12 4 -17 -17 -12 -22 -36 -13 -60 6 -15 5 -23 -3 -23
-6 0 -3 -9 7 -20 17 -18 17 -20 2 -14 -15 6 -17 -4 -16 -95 1 -64 6 -98 12
-94 6 4 7 1 2 -7 -4 -7 -2 -16 6 -21 11 -7 11 -9 -2 -9 -12 0 -15 -7 -11 -25
2 -14 8 -22 12 -20 5 3 12 0 16 -6 4 -7 3 -9 -3 -6 -6 4 -13 0 -16 -7 -3 -8
-2 -16 3 -18 6 -2 11 -15 12 -30 1 -16 6 -28 11 -28 5 0 3 -8 -4 -17 -8 -9 -9
-14 -3 -10 7 4 15 0 18 -9 4 -10 2 -13 -7 -9 -6 4 -4 0 6 -8 12 -10 14 -17 7
-22 -5 -3 -8 -11 -4 -16 3 -5 9 -7 14 -4 4 3 6 -4 3 -15 -3 -13 0 -20 8 -20
10 0 10 -3 2 -11 -9 -9 -6 -17 8 -32 14 -16 16 -23 7 -29 -12 -7 -4 -12 14 -9
4 0 5 -6 2 -14 -4 -8 -2 -15 4 -15 5 0 13 -7 16 -16 3 -8 2 -13 -3 -10 -5 4
-7 -3 -4 -14 3 -11 11 -20 19 -20 8 0 11 -8 9 -20 -2 -13 4 -25 16 -33 10 -6
19 -19 19 -28 0 -9 7 -19 15 -23 8 -3 14 -11 13 -18 -2 -7 2 -12 8 -11 7 1 11
-5 10 -15 0 -10 6 -16 16 -16 14 1 16 -2 7 -17 -7 -15 -6 -19 5 -19 8 0 18 -9
21 -20 4 -11 10 -18 15 -15 4 3 11 -6 14 -20 4 -14 10 -24 14 -22 4 1 8 -2 9
-8 1 -5 11 -12 22 -17 13 -5 19 -13 15 -23 -4 -11 -2 -14 9 -9 10 3 20 -2 27
-16 6 -11 15 -18 20 -15 6 4 7 -1 3 -11 -4 -12 -3 -15 5 -10 7 4 12 2 12 -4 0
-6 4 -8 10 -5 5 3 10 -1 10 -9 0 -9 5 -16 11 -16 5 0 7 -6 3 -13 -6 -9 -4 -9
8 1 14 11 17 10 23 -9 5 -15 9 -18 15 -9 6 9 10 7 15 -9 6 -21 20 -28 28 -13
2 4 3 2 1 -4 -4 -19 32 -44 45 -31 8 8 11 6 11 -7 0 -12 5 -16 15 -12 8 3 14
0 12 -7 -1 -7 4 -11 11 -9 7 1 15 -5 19 -14 5 -13 7 -13 14 -2 7 10 9 9 9 -4
0 -13 8 -18 30 -18 21 0 30 -5 30 -16 0 -9 5 -12 12 -8 6 4 8 3 5 -3 -3 -5 2
-26 13 -45 10 -20 16 -38 13 -41 -3 -3 10 -16 28 -28 19 -11 25 -18 15 -15
-14 5 -16 4 -8 -6 6 -7 12 -17 14 -23 1 -5 10 -8 17 -7 13 3 13 2 0 -14 -8
-11 -9 -15 -2 -10 8 4 13 2 13 -6 0 -8 9 -20 19 -28 11 -7 18 -17 15 -22 -3
-4 0 -8 7 -8 7 0 9 -3 5 -7 -3 -4 6 -13 21 -20 16 -7 19 -11 8 -8 -18 5 -18 4
3 -14 12 -11 22 -25 22 -32 0 -7 3 -10 6 -6 4 3 13 -1 21 -9 8 -8 19 -11 25
-8 7 4 8 2 4 -5 -4 -6 -13 -8 -19 -4 -7 4 -7 0 1 -10 8 -9 19 -15 25 -14 7 1
11 -4 10 -11 -3 -11 10 -16 30 -13 5 1 6 -2 4 -6 -3 -5 1 -14 9 -21 8 -7 14
-10 14 -8 0 3 16 -11 36 -32 20 -20 31 -28 24 -17 -7 11 -1 8 13 -7 17 -18 27
-23 30 -15 3 7 6 6 6 -4 1 -9 9 -23 19 -30 16 -13 16 -13 2 5 -14 18 -14 18 7
6 12 -8 20 -17 17 -21 -2 -4 11 -13 30 -20 19 -7 32 -17 29 -22 -3 -6 -1 -7 5
-3 6 3 13 2 17 -3 3 -6 13 -7 22 -4 11 4 14 3 9 -5 -4 -8 0 -12 12 -12 10 0
22 -3 26 -7 3 -4 14 -8 24 -9 9 -2 18 -8 20 -14 3 -7 9 -7 20 2 12 10 14 10 8
1 -4 -8 -1 -13 8 -13 9 0 16 -5 16 -11 0 -8 6 -7 17 2 11 10 14 10 9 1 -5 -8
-1 -12 13 -12 11 0 23 -5 27 -11 3 -6 15 -9 25 -6 10 3 26 -1 36 -8 12 -9 23
-10 35 -4 14 7 16 6 12 -6 -7 -17 16 -17 28 0 5 6 8 5 8 -3 0 -10 46 -13 220
-11 193 1 221 3 230 18 7 11 9 12 10 2 0 -11 3 -11 15 -1 12 10 15 10 15 -1 0
-9 3 -10 8 -3 4 6 17 10 29 9 17 -1 20 2 12 11 -7 9 -5 12 8 10 10 0 21 -5 25
-11 5 -6 8 -5 8 3 0 6 7 12 16 12 9 0 12 5 8 13 -6 9 -4 9 8 -1 16 -13 48 -7
48 10 0 6 7 7 16 4 10 -4 13 -2 8 6 -5 8 -2 9 9 5 10 -3 17 -2 17 4 0 6 5 7
10 4 6 -3 10 -1 10 4 0 6 6 11 14 11 22 0 66 26 58 35 -4 4 4 4 17 0 15 -4 21
-3 17 3 -3 5 1 13 10 16 10 4 13 2 9 -7 -4 -6 2 -3 12 9 10 12 26 24 36 27 10
4 15 12 11 18 -4 7 2 7 17 -1 13 -7 21 -9 17 -5 -9 10 14 34 26 27 5 -3 7 2 3
11 -4 11 -2 14 8 10 8 -3 18 2 21 11 3 9 11 13 17 9 5 -3 7 -1 4 4 -4 6 3 19
16 29 19 16 20 16 8 1 -12 -15 -12 -17 3 -11 15 6 20 17 17 36 0 4 6 5 14 2
11 -4 15 1 15 17 0 19 2 21 10 9 8 -13 10 -12 10 3 0 10 4 16 9 13 5 -3 11 4
14 15 4 14 10 18 18 13 9 -5 10 -2 6 9 -5 13 -1 17 15 17 18 0 19 2 7 17 -8 9
-9 14 -3 10 15 -8 38 18 29 33 -4 6 -3 10 2 9 17 -3 33 1 32 9 -3 19 2 33 11
27 5 -3 12 6 16 20 3 13 10 23 14 20 4 -3 11 2 14 11 3 9 11 12 18 8 9 -5 9
-3 -1 9 -11 14 -11 17 0 18 8 1 18 1 22 0 5 -1 6 3 2 9 -3 6 -12 8 -18 4 -7
-3 -3 2 7 10 11 9 16 16 10 16 -5 0 -3 4 3 8 7 4 14 17 16 27 2 11 9 30 15 43
11 19 16 20 33 11 18 -9 19 -8 11 8 -9 16 -6 18 24 19 21 0 39 8 48 19 7 10
18 15 25 11 8 -5 14 0 18 13 4 17 8 19 19 10 10 -8 12 -7 9 9 -3 15 1 19 16
15 11 -3 21 1 25 11 3 9 10 13 15 10 5 -3 9 -2 8 3 -4 20 2 24 18 12 9 -8 14
-9 10 -2 -9 14 2 43 15 43 6 0 7 -5 2 -13 -5 -7 -2 -6 6 3 8 9 19 17 23 17 5
1 12 5 15 9 4 4 1 4 -7 -1 -10 -6 -12 -4 -7 4 5 7 15 10 24 6 9 -3 13 -3 10 1
-11 10 11 46 23 38 6 -3 9 2 7 12 -2 10 2 19 8 19 18 0 46 34 38 47 -4 7 3 4
16 -7 13 -11 20 -14 16 -7 -8 14 2 54 12 48 9 -5 26 15 30 34 2 8 8 20 14 25
8 7 8 5 3 -5 -5 -8 -4 -11 0 -7 9 8 16 30 18 60 1 19 17 24 17 5 0 -6 3 -8 8
-4 7 8 8 13 11 44 1 15 3 15 11 2 8 -12 10 -9 10 11 0 16 9 33 23 43 12 9 17
14 10 11 -7 -3 -9 2 -6 15 3 11 13 20 22 21 10 0 11 2 3 6 -8 3 -5 11 10 24
13 10 17 18 11 19 -7 0 -13 -4 -13 -10 0 -5 -5 -10 -10 -10 -6 0 -5 8 2 19 7
11 16 17 22 14 5 -4 7 1 3 10 -4 10 -2 17 4 17 6 0 9 9 6 20 -3 11 -1 18 4 14
5 -3 9 0 9 6 0 6 5 8 13 4 8 -5 8 -2 -2 9 -11 14 -11 17 0 17 11 0 11 2 -1 10
-12 7 -12 10 -1 10 7 0 11 6 7 15 -3 8 0 15 6 15 7 0 6 5 -2 15 -11 13 -10 14
6 8 17 -6 18 -5 4 12 -12 15 -12 17 -1 10 11 -6 13 -4 8 8 -3 9 -2 19 2 22 14
8 12 518 -2 527 -9 5 -8 8 3 8 13 0 13 1 0 10 -11 7 -11 10 -2 10 7 0 10 5 7
10 -4 6 -12 7 -18 3 -7 -4 -6 0 2 10 11 14 11 17 0 17 -12 0 -12 2 -1 9 11 6
10 10 -3 15 -10 3 -15 12 -11 21 3 8 1 15 -4 15 -6 0 -10 5 -10 11 0 5 6 7 13
4 6 -4 2 2 -11 12 -18 15 -20 21 -10 31 9 9 8 12 -8 12 -16 0 -17 2 -4 10 13
9 13 10 0 10 -13 0 -13 1 0 10 13 8 12 10 -4 10 -11 0 -16 3 -13 7 4 3 -1 12
-11 20 -9 8 -11 12 -4 8 6 -3 12 -1 12 4 0 6 -4 11 -10 11 -5 0 -10 7 -10 15
0 8 -5 15 -11 15 -8 0 -7 6 2 18 7 9 10 14 5 10 -14 -12 -35 15 -24 30 8 9 7
11 -7 6 -13 -5 -16 -4 -11 4 4 7 2 12 -3 12 -6 0 -10 6 -9 13 2 6 -3 11 -11 9
-12 -3 -12 0 -1 13 11 13 10 14 -5 9 -13 -5 -16 -4 -11 4 4 7 2 12 -3 12 -6 0
-11 9 -11 20 0 11 -9 25 -20 32 -11 7 -20 19 -20 26 0 8 -6 12 -13 9 -8 -3
-14 1 -14 9 0 7 5 10 11 7 6 -3 2 3 -9 14 -13 14 -22 16 -27 9 -5 -8 -8 -7 -8
2 0 7 -12 25 -27 41 -16 16 -35 39 -43 50 -10 15 -16 17 -22 8 -5 -8 -8 -4 -8
11 0 19 -13 27 -41 24 -3 -1 -6 6 -6 13 0 12 3 12 16 2 14 -11 14 -10 2 5 -7
10 -17 15 -21 13 -5 -3 -20 6 -34 20 -14 14 -30 25 -37 25 -6 0 -9 7 -5 15 3
8 1 15 -4 15 -6 0 -10 -8 -10 -17 -1 -13 -5 -11 -15 9 -11 19 -21 26 -35 23
-11 -2 -18 0 -15 6 4 5 1 9 -5 9 -6 0 -8 6 -4 13 5 9 4 9 -6 0 -11 -10 -16 -9
-27 5 -8 9 -11 11 -8 4 6 -11 3 -12 -14 -3 -11 7 -21 14 -21 17 0 3 5 2 12 -2
7 -5 8 -3 4 5 -5 7 -11 10 -14 7 -3 -3 -14 2 -25 11 -15 13 -19 14 -13 3 5 -9
2 -8 -7 2 -8 10 -18 14 -23 10 -4 -4 -2 1 5 11 10 12 10 17 2 17 -7 0 -9 5 -5
13 5 7 0 6 -11 -3 -17 -14 -18 -14 -6 9 11 19 11 22 0 16 -9 -6 -11 -3 -6 8 4
12 1 17 -11 17 -15 0 -15 2 -2 10 13 8 13 10 -2 10 -11 0 -16 6 -13 20 4 23
-5 26 -24 8 -11 -11 -13 -10 -8 5 8 21 -2 49 -14 41 -5 -3 -9 2 -9 11 0 9 -14
29 -30 45 -17 17 -28 35 -25 40 3 6 -1 10 -9 10 -9 0 -16 7 -16 16 0 8 -4 13
-8 10 -5 -3 -16 6 -26 19 -10 14 -22 22 -27 19 -5 -3 -6 3 -2 12 4 11 3 15 -5
10 -6 -3 -14 3 -17 15 -6 17 -9 19 -17 8 -7 -10 -8 -8 -5 9 6 25 -2 28 -22 10
-10 -9 -12 -9 -7 -1 3 6 2 14 -4 18 -6 4 -7 11 -4 17 4 7 2 8 -4 4 -7 -4 -12
-3 -12 3 0 5 -9 13 -20 16 -11 4 -17 11 -14 17 4 7 2 8 -4 4 -7 -4 -12 -2 -12
4 0 7 -7 9 -16 6 -12 -4 -15 -2 -10 9 3 8 2 14 -2 13 -12 -3 -62 25 -62 34 0
5 -4 6 -10 3 -5 -3 -10 2 -11 12 0 10 -3 13 -6 6 -3 -10 -8 -9 -20 2 -8 8 -19
12 -25 9 -7 -4 -8 -2 -4 4 6 11 -6 16 -26 13 -5 0 -8 3 -8 9 0 5 -9 10 -20 10
-11 0 -23 6 -26 14 -3 8 -13 12 -26 8 -16 -4 -19 -2 -13 8 6 10 4 12 -9 7 -10
-4 -19 -1 -23 9 -5 13 -7 13 -14 2 -7 -11 -9 -11 -9 1 0 11 -3 11 -17 0 -9 -8
-14 -9 -11 -4 4 6 -2 17 -14 24 -11 7 -17 8 -13 2 3 -6 1 -11 -4 -11 -6 0 -11
5 -11 11 0 5 -4 8 -9 4 -5 -3 -16 2 -24 10 -14 13 -16 13 -20 -3 -4 -16 -5
-16 -6 1 -1 15 -4 16 -23 6 -18 -10 -20 -9 -15 4 5 14 2 15 -19 7 -17 -7 -23
-7 -19 0 3 6 0 11 -7 11 -15 1 -31 5 -38 8 -17 8 -50 6 -50 -3 0 -6 -5 -4 -10
4 -7 11 -10 11 -10 2 0 -10 -5 -10 -21 -2 -12 7 -60 10 -119 8 -84 -2 -97 -5
-87 -17 9 -10 3 -9 -22 3 -18 10 -30 13 -27 8z m99 -1295 c16 15 19 15 27 3 8
-13 10 -13 10 0 0 13 1 13 10 0 6 -9 13 -11 18 -5 9 13 46 20 38 7 -3 -5 1 -9
9 -9 8 0 15 5 15 10 0 5 8 3 17 -4 11 -10 14 -10 9 -1 -4 6 -2 12 3 12 6 0 11
-7 11 -15 0 -16 28 -10 43 9 6 7 7 5 4 -6 -3 -9 1 -19 9 -22 9 -3 12 -1 9 4
-3 6 -1 10 4 10 6 0 11 -4 11 -9 0 -5 7 -12 16 -15 8 -3 12 -2 9 3 -3 5 -1 12
5 16 5 3 10 -1 10 -9 0 -8 5 -18 12 -22 7 -4 8 -3 4 4 -4 7 -2 12 3 12 6 0 11
-4 11 -10 0 -14 27 -12 34 3 3 6 3 1 0 -13 -4 -14 -3 -22 1 -18 8 8 80 -26 90
-42 4 -6 11 -8 16 -5 5 4 9 -3 9 -13 0 -15 5 -19 20 -15 13 3 20 0 20 -8 0 -8
18 -25 40 -39 39 -23 51 -40 30 -40 -5 0 -1 -9 10 -20 11 -11 25 -20 31 -20 5
0 7 -5 4 -10 -4 -6 -1 -17 5 -25 6 -8 8 -20 4 -26 -4 -7 -3 -9 2 -6 6 3 16 2
24 -4 11 -6 12 -9 2 -9 -7 0 -11 -4 -7 -10 3 -5 13 -6 23 -3 13 4 13 2 -3 -10
-19 -14 -19 -16 -2 -22 9 -4 17 -15 17 -24 0 -9 6 -23 13 -30 10 -11 9 -12 -3
-6 -12 6 -13 5 -2 -6 6 -7 12 -26 12 -42 0 -20 4 -26 13 -21 8 5 8 2 -2 -9 -9
-11 -10 -17 -2 -17 6 0 11 -5 11 -11 0 -5 -3 -8 -7 -6 -5 3 -8 -5 -8 -18 0
-16 3 -20 11 -14 9 7 11 0 7 -27 -3 -25 -1 -34 6 -30 6 4 11 2 11 -3 0 -6 -10
-12 -22 -12 -17 -1 -19 -2 -6 -6 17 -4 17 -6 2 -21 -11 -10 -13 -17 -5 -20 7
-2 8 -9 2 -21 -5 -9 -8 -31 -7 -48 2 -26 0 -30 -12 -21 -10 9 -12 8 -10 -3 2
-8 8 -17 13 -21 6 -4 1 -8 -10 -8 -17 0 -17 -2 -5 -10 8 -5 10 -10 5 -10 -6 0
-11 -9 -12 -21 -1 -12 -10 -28 -20 -36 -10 -8 -13 -12 -6 -9 6 4 15 2 18 -4 4
-6 1 -9 -7 -8 -7 2 -12 -4 -12 -13 1 -9 -5 -16 -14 -15 -8 0 -17 -6 -19 -14
-4 -13 -3 -13 6 0 8 11 11 12 11 2 0 -8 -9 -16 -20 -19 -17 -5 -18 -8 -8 -21
10 -12 10 -14 1 -8 -8 4 -13 2 -13 -4 0 -6 -5 -8 -11 -5 -6 4 -9 0 -7 -11 2
-11 -3 -19 -12 -19 -10 0 -14 -9 -13 -25 1 -14 -1 -19 -3 -12 -8 17 -27 15
-21 -2 4 -11 0 -13 -15 -11 -11 3 -18 1 -14 -2 8 -9 -34 -53 -51 -53 -7 0 -13
-6 -14 -12 0 -9 -2 -9 -6 1 -4 10 -9 8 -19 -10 -7 -13 -13 -18 -14 -11 0 7 -5
10 -10 7 -6 -4 -8 -10 -5 -15 3 -4 -2 -11 -11 -14 -8 -3 -12 -2 -9 4 3 6 1 10
-4 10 -6 0 -11 -5 -11 -11 0 -6 -7 -8 -16 -5 -8 3 -13 2 -10 -3 3 -5 -1 -12
-10 -15 -10 -4 -13 -1 -9 7 3 6 -2 2 -11 -10 -13 -19 -20 -21 -37 -12 -17 10
-19 9 -14 -5 5 -13 3 -15 -10 -7 -12 6 -21 4 -31 -7 -7 -10 -11 -12 -8 -6 8
15 -21 26 -30 12 -5 -7 -2 -8 7 -3 12 7 12 5 1 -6 -8 -9 -15 -10 -20 -4 -9 13
-64 16 -56 4 3 -5 0 -9 -5 -9 -6 0 -11 5 -11 11 0 8 -5 8 -15 -1 -12 -10 -15
-10 -15 0 0 10 -3 10 -15 0 -12 -10 -15 -10 -15 1 0 10 -3 10 -12 1 -9 -9 -15
-7 -25 6 -14 16 -14 16 -9 -2 5 -16 4 -17 -8 -7 -8 7 -21 9 -28 5 -9 -6 -9 -3
1 9 13 16 12 17 -14 7 -15 -6 -30 -8 -33 -5 -3 3 0 5 6 5 7 0 12 4 12 8 0 5
-13 7 -30 4 -24 -3 -30 -1 -30 14 0 16 -2 17 -10 4 -6 -10 -10 -11 -10 -2 0 6
-5 12 -11 12 -5 0 -7 -5 -3 -12 4 -7 3 -8 -5 -4 -6 4 -9 12 -6 17 4 5 1 9 -5
9 -6 0 -8 4 -5 10 3 6 -1 7 -10 3 -13 -5 -14 -7 -3 -14 9 -6 9 -9 1 -9 -6 0
-21 12 -32 26 -12 15 -21 22 -21 16 0 -6 -17 5 -38 26 -21 20 -36 42 -33 47 3
6 -4 3 -14 -5 -17 -14 -18 -13 -12 3 4 11 2 17 -7 17 -13 0 -30 34 -27 53 1 5
-3 6 -9 2 -8 -5 -7 -12 2 -23 10 -12 10 -14 0 -8 -15 9 -47 68 -44 80 2 5 -4
6 -12 3 -11 -4 -13 -1 -9 10 4 11 2 14 -5 9 -8 -5 -10 -1 -5 10 5 12 3 15 -6
9 -10 -6 -11 -3 -2 14 10 18 9 21 -7 21 -15 0 -18 5 -15 24 4 18 -1 27 -17 36
-17 9 -19 14 -9 26 9 11 8 14 -2 14 -11 0 -11 2 1 10 12 8 12 10 1 10 -8 0
-11 3 -8 7 4 3 1 13 -6 21 -10 13 -9 15 6 9 25 -10 21 2 -5 13 -20 7 -20 9 -4
9 14 1 16 4 7 14 -6 8 -8 17 -4 20 3 4 1 7 -5 7 -7 0 -12 5 -12 11 0 5 6 7 13
3 8 -5 8 -2 -2 9 -7 9 -9 17 -4 17 5 0 10 7 10 15 0 8 -4 12 -8 9 -10 -6 -5
34 10 69 14 35 14 40 1 32 -5 -3 -10 -1 -10 4 0 6 8 11 18 11 13 0 14 2 4 9
-15 9 -15 20 -1 38 7 7 5 13 -3 16 -7 3 -4 6 7 6 17 1 17 3 5 11 -11 7 -11 10
-2 10 7 0 10 5 7 10 -4 6 -12 7 -18 4 -7 -4 -8 -3 -4 2 5 5 14 9 20 9 7 0 12
7 12 15 0 8 11 21 25 28 14 7 16 10 6 7 -15 -4 -17 -3 -8 8 7 8 8 18 4 23 -4
4 1 3 10 -4 14 -12 16 -10 11 9 -5 17 -3 20 7 14 10 -6 12 -4 7 9 -6 14 -3 16
16 11 17 -5 19 -4 7 4 -8 6 -11 11 -6 11 5 0 2 8 -5 17 -8 9 -9 14 -2 10 16
-10 43 2 43 19 0 8 6 14 14 14 8 0 17 7 20 16 3 8 10 12 16 9 6 -4 7 1 3 11
-4 12 -3 15 5 10 7 -4 12 -1 12 9 0 11 5 15 15 11 9 -3 15 0 15 9 0 8 7 15 15
15 8 0 15 5 15 11 0 6 7 9 15 5 14 -5 20 5 16 27 -1 5 3 6 9 2 6 -3 7 -11 4
-17 -4 -7 -2 -8 4 -4 7 4 12 14 12 22 0 8 5 14 11 14 5 0 7 -6 4 -12 -4 -7 0
-5 8 5 16 20 32 23 21 5 -5 -9 -3 -9 9 1 9 7 15 17 12 21 -3 4 11 4 29 0 27
-6 33 -5 29 6 -3 8 -10 11 -16 7 -6 -3 -7 -1 -3 6 6 9 11 9 21 1 9 -7 16 -6
25 5 12 14 15 14 29 1 13 -14 17 -14 34 1z m-328 -1137 c3 -6 -1 -7 -9 -4 -18
7 -21 14 -7 14 6 0 13 -4 16 -10z m1675 -619 c0 -5 -7 -12 -16 -15 -14 -5 -15
-4 -4 9 14 17 20 19 20 6z"/>
<path d="M1811 2544 c0 -11 3 -14 6 -6 3 7 2 16 -1 19 -3 4 -6 -2 -5 -13z"/>
<path d="M2403 2359 c9 -6 14 -15 11 -21 -4 -7 -2 -8 5 -4 14 9 -3 36 -23 36
-6 0 -3 -5 7 -11z"/>
<path d="M1328 1723 c7 -3 16 -2 19 1 4 3 -2 6 -13 5 -11 0 -14 -3 -6 -6z"/>
<path d="M2327 1420 c-9 -11 -13 -20 -7 -20 5 0 14 9 20 20 6 11 9 20 8 20 -2
0 -11 -9 -21 -20z"/>
<path d="M3105 720 c-3 -5 -2 -10 4 -10 5 0 13 5 16 10 3 6 2 10 -4 10 -5 0
-13 -4 -16 -10z"/>
</g>
</svg>
