<?xml version="1.0" encoding="UTF-8"?>
<svg width="999px" height="999px" viewBox="0 0 999 999" version="1.1" xmlns="http://www.w3.org/2000/svg" xmlns:xlink="http://www.w3.org/1999/xlink">
    <!-- Generator: Sketch 47.1 (45422) - http://www.bohemiancoding.com/sketch -->
    <title>AIY logo_blue</title>
    <desc>Created with Sketch.</desc>
    <defs></defs>
    <g id="Page-1" stroke="none" stroke-width="1" fill="none" fill-rule="evenodd">
        <g id="AIY-logo_blue" transform="translate(-1.000000, 0.000000)" fill-rule="nonzero" fill="#000000">
            <path d="M718.357204,353 L718.357204,353 L652,353 L739.575496,523 L768,461.563861 L718.357204,353 Z M748,550.765007 L748,646 L809.516804,646 L809.516804,539.77251 L906,353 L839.774255,353 L748,550.765007 Z M426,646 L595,646 L595,597.050119 L539.895637,597.050119 L539.895637,401.949881 L595,401.949881 L595,353 L426,353 L426,401.949881 L479.709316,401.949881 L479.709316,597.150017 L426,597.150017 L426,646 Z M200.2,585.66178 L285.4,585.66178 L305.7,646 L370,646 L370,646 L260.2,353 L204.2,353 L95,646 L159.3,646 L232.2,427.124105 L269.1,536.811797 L216.5,536.811797 L200.2,585.66178 Z M1000.001,499.5005 C1000.001,775.324675 776.324675,999.000999 500.5005,999.000999 C224.676324,999.000999 1,775.324675 1,499.5005 C1,223.676324 224.676324,-1.09356968e-14 500.5005,-1.09356968e-14 C776.324675,-1.09356968e-14 1000.001,223.676324 1000.001,499.5005 L1000.001,499.5005 Z" id="Shape"></path>
        </g>
    </g>
</svg>